# xmcd
#
# Track frame offsets:
#	150
#	31398
#	68712
#	114343
#	137546
#	162470
#	194079
#	229539
#
# Disc length: 3362 seconds
#
# Revision: 0
# Processed by: cddbd v1.5.2PL0 Copyright (c) Steve Scherf et al.
# Submitted via: EZCDAudioConverter 7.0.6.1
#
DISCID=680d2008
DTITLE=Grateful Dead - Robert F. Kennedy Stadium, Washington D.C. - July 12th 
DTITLE=1989
DYEAR=1989
DGENRE=Psychedelic Rock
TTITLE0=Touch of Grey
TTITLE1=New Minglewood Blues
TTITLE2=Mississippi Half Step Uptown Toodeloo
TTITLE3=Just like Tom Thumb's Blues
TTITLE4=Far from Me
TTITLE5=Cassidy
TTITLE6=Friend of the Devil
TTITLE7=Promised Land
EXTD=
EXTT0=
EXTT1=
EXTT2=
EXTT3=
EXTT4=
EXTT5=
EXTT6=
EXTT7=
PLAYORDER=
